<?xml version="1.0" encoding="utf-8"?>
<!-- Generator: Adobe Illustrator 25.4.1, SVG Export Plug-In . SVG Version: 6.00 Build 0)  -->
<svg version="1.1" id="Layer_1" xmlns="http://www.w3.org/2000/svg" xmlns:xlink="http://www.w3.org/1999/xlink" x="0px" y="0px"
	 viewBox="0 0 222.7 210.4" style="enable-background:new 0 0 222.7 210.4;" xml:space="preserve">
<style type="text/css">
	.st0{filter:url(#Adobe_OpacityMaskFilter);}
	.st1{filter:url(#Adobe_OpacityMaskFilter_00000113321704019188268930000005426400838515766433_);}
	.st2{mask:url(#SVGID_1_);fill:url(#SVGID_00000014617268598361917340000005519267518513998476_);}
	.st3{fill:url(#SVGID_00000147926020513907415400000004428200755058659734_);}
	.st4{filter:url(#Adobe_OpacityMaskFilter_00000106113820056867018930000012720494417243214502_);}
	.st5{filter:url(#Adobe_OpacityMaskFilter_00000021838981648441020550000004110668639273046933_);}
	
		.st6{mask:url(#SVGID_00000062914836043912527550000006900052042306896042_);fill:url(#SVGID_00000096751716640238045940000000766967732759377070_);}
	.st7{fill:url(#SVGID_00000047766484701414654710000000061007467411456656_);}
	.st8{filter:url(#Adobe_OpacityMaskFilter_00000039134699602869049310000017976285783005923736_);}
	.st9{filter:url(#Adobe_OpacityMaskFilter_00000085226763136818140620000011046702505247793308_);}
	
		.st10{mask:url(#SVGID_00000167395622945294698640000002766205933347863427_);fill:url(#SVGID_00000159440886611302393950000007541525797756274353_);}
	.st11{opacity:0.67;fill:url(#SVGID_00000177481765555760116130000015413061601414790313_);}
	.st12{filter:url(#Adobe_OpacityMaskFilter_00000135661298566175189660000001656260056147228557_);}
	.st13{filter:url(#Adobe_OpacityMaskFilter_00000134932706491613953670000000403381164935822256_);}
	
		.st14{mask:url(#SVGID_00000070811596234669993550000001606132784112887685_);fill:url(#SVGID_00000123412837283130120480000012148052174771504514_);}
	.st15{fill:url(#SVGID_00000055685409894353574090000010398730928704381106_);}
	.st16{fill:#7367BD;}
	.st17{fill:#69BDE7;}
</style>
<g>
	<defs>
		<filter id="Adobe_OpacityMaskFilter" filterUnits="userSpaceOnUse" x="3.9" y="3.9" width="202.1" height="182.3">
			<feFlood  style="flood-color:white;flood-opacity:1" result="back"/>
			<feBlend  in="SourceGraphic" in2="back" mode="normal"/>
		</filter>
	</defs>
	<mask maskUnits="userSpaceOnUse" x="3.9" y="3.9" width="202.1" height="182.3" id="SVGID_1_">
		<g class="st0">
			<defs>
				
					<filter id="Adobe_OpacityMaskFilter_00000007425117198765620050000015429324261759305868_" filterUnits="userSpaceOnUse" x="3.9" y="3.9" width="202.1" height="182.3">
					<feFlood  style="flood-color:white;flood-opacity:1" result="back"/>
					<feBlend  in="SourceGraphic" in2="back" mode="normal"/>
				</filter>
			</defs>
			<mask maskUnits="userSpaceOnUse" x="3.9" y="3.9" width="202.1" height="182.3" id="SVGID_1_">
				<g style="filter:url(#Adobe_OpacityMaskFilter_00000007425117198765620050000015429324261759305868_);">
				</g>
			</mask>
			
				<linearGradient id="SVGID_00000017487093275365306550000001233178353084369044_" gradientUnits="userSpaceOnUse" x1="-10.4302" y1="192.8907" x2="240.3725" y2="-23.8119" gradientTransform="matrix(0.9983 -5.860000e-02 5.860000e-02 0.9983 -8.5228 8.9857)">
				<stop  offset="5.405410e-03" style="stop-color:#FFFFFF"/>
				<stop  offset="0.1641" style="stop-color:#C1C1C1"/>
				<stop  offset="0.3298" style="stop-color:#878787"/>
				<stop  offset="0.4905" style="stop-color:#565656"/>
				<stop  offset="0.6417" style="stop-color:#313131"/>
				<stop  offset="0.7813" style="stop-color:#161616"/>
				<stop  offset="0.905" style="stop-color:#060606"/>
				<stop  offset="1" style="stop-color:#000000"/>
			</linearGradient>
			<polygon style="mask:url(#SVGID_1_);fill:url(#SVGID_00000017487093275365306550000001233178353084369044_);" points="3.9,179.5 
				206,3.9 20.6,186.2 			"/>
		</g>
	</mask>
	
		<linearGradient id="SVGID_00000013195406968595485620000016319353007484504466_" gradientUnits="userSpaceOnUse" x1="-10.4302" y1="192.8907" x2="240.3725" y2="-23.8119" gradientTransform="matrix(0.9983 -5.860000e-02 5.860000e-02 0.9983 -8.5228 8.9857)">
		<stop  offset="5.405410e-03" style="stop-color:#69BDE7"/>
		<stop  offset="0.1962" style="stop-color:#5089B0"/>
		<stop  offset="0.3872" style="stop-color:#3B5C80"/>
		<stop  offset="0.569" style="stop-color:#2A385B"/>
		<stop  offset="0.7368" style="stop-color:#1E1F40"/>
		<stop  offset="0.8856" style="stop-color:#170F30"/>
		<stop  offset="1" style="stop-color:#140A2A"/>
	</linearGradient>
	<polygon style="fill:url(#SVGID_00000013195406968595485620000016319353007484504466_);" points="3.9,179.5 206,3.9 20.6,186.2 	
		"/>
	<defs>
		
			<filter id="Adobe_OpacityMaskFilter_00000130608080465392820010000005266088908709327774_" filterUnits="userSpaceOnUse" x="15.1" y="36.3" width="169.5" height="161.8">
			<feFlood  style="flood-color:white;flood-opacity:1" result="back"/>
			<feBlend  in="SourceGraphic" in2="back" mode="normal"/>
		</filter>
	</defs>
	
		<mask maskUnits="userSpaceOnUse" x="15.1" y="36.3" width="169.5" height="161.8" id="SVGID_00000054242183621091329890000004648502029110717342_">
		<g style="filter:url(#Adobe_OpacityMaskFilter_00000130608080465392820010000005266088908709327774_);">
			<defs>
				
					<filter id="Adobe_OpacityMaskFilter_00000179630813514162736160000001762858938318870174_" filterUnits="userSpaceOnUse" x="15.1" y="36.3" width="169.5" height="161.8">
					<feFlood  style="flood-color:white;flood-opacity:1" result="back"/>
					<feBlend  in="SourceGraphic" in2="back" mode="normal"/>
				</filter>
			</defs>
			
				<mask maskUnits="userSpaceOnUse" x="15.1" y="36.3" width="169.5" height="161.8" id="SVGID_00000054242183621091329890000004648502029110717342_">
				<g style="filter:url(#Adobe_OpacityMaskFilter_00000179630813514162736160000001762858938318870174_);">
				</g>
			</mask>
			
				<linearGradient id="SVGID_00000109005193445893739280000006815314847607747997_" gradientUnits="userSpaceOnUse" x1="-0.4205" y1="201.6338" x2="216.2045" y2="14.462" gradientTransform="matrix(0.9983 -5.860000e-02 5.860000e-02 0.9983 -8.5228 8.9857)">
				<stop  offset="5.405410e-03" style="stop-color:#FFFFFF"/>
				<stop  offset="0.1641" style="stop-color:#C1C1C1"/>
				<stop  offset="0.3298" style="stop-color:#878787"/>
				<stop  offset="0.4905" style="stop-color:#565656"/>
				<stop  offset="0.6417" style="stop-color:#313131"/>
				<stop  offset="0.7813" style="stop-color:#161616"/>
				<stop  offset="0.905" style="stop-color:#060606"/>
				<stop  offset="1" style="stop-color:#000000"/>
			</linearGradient>
			
				<polygon style="mask:url(#SVGID_00000054242183621091329890000004648502029110717342_);fill:url(#SVGID_00000109005193445893739280000006815314847607747997_);" points="
				15.1,193.1 184.6,36.3 20.9,198 			"/>
		</g>
	</mask>
	
		<linearGradient id="SVGID_00000031171492562303694690000009893433350548026007_" gradientUnits="userSpaceOnUse" x1="-0.4205" y1="201.6338" x2="216.2045" y2="14.462" gradientTransform="matrix(0.9983 -5.860000e-02 5.860000e-02 0.9983 -8.5228 8.9857)">
		<stop  offset="5.405410e-03" style="stop-color:#69BDE7"/>
		<stop  offset="0.1962" style="stop-color:#5089B0"/>
		<stop  offset="0.3872" style="stop-color:#3B5C80"/>
		<stop  offset="0.569" style="stop-color:#2A385B"/>
		<stop  offset="0.7368" style="stop-color:#1E1F40"/>
		<stop  offset="0.8856" style="stop-color:#170F30"/>
		<stop  offset="1" style="stop-color:#140A2A"/>
	</linearGradient>
	<polygon style="fill:url(#SVGID_00000031171492562303694690000009893433350548026007_);" points="15.1,193.1 184.6,36.3 20.9,198 	
		"/>
	<defs>
		
			<filter id="Adobe_OpacityMaskFilter_00000060028932722585191970000008791866702961134223_" filterUnits="userSpaceOnUse" x="33.7" y="0" width="163.7" height="141.8">
			<feFlood  style="flood-color:white;flood-opacity:1" result="back"/>
			<feBlend  in="SourceGraphic" in2="back" mode="normal"/>
		</filter>
	</defs>
	
		<mask maskUnits="userSpaceOnUse" x="33.7" y="0" width="163.7" height="141.8" id="SVGID_00000115502572417842531700000016043947847760304565_">
		<g style="filter:url(#Adobe_OpacityMaskFilter_00000060028932722585191970000008791866702961134223_);">
			<defs>
				
					<filter id="Adobe_OpacityMaskFilter_00000040575373116171264080000001201382740175489978_" filterUnits="userSpaceOnUse" x="33.7" y="0" width="163.7" height="141.8">
					<feFlood  style="flood-color:white;flood-opacity:1" result="back"/>
					<feBlend  in="SourceGraphic" in2="back" mode="normal"/>
				</filter>
			</defs>
			
				<mask maskUnits="userSpaceOnUse" x="33.7" y="0" width="163.7" height="141.8" id="SVGID_00000115502572417842531700000016043947847760304565_">
				<g style="filter:url(#Adobe_OpacityMaskFilter_00000040575373116171264080000001201382740175489978_);">
				</g>
			</mask>
			
				<linearGradient id="SVGID_00000056398533031740008830000003829036874318103467_" gradientUnits="userSpaceOnUse" x1="25.3124" y1="148.8371" x2="225.0815" y2="-23.7705" gradientTransform="matrix(0.9983 -5.860000e-02 5.860000e-02 0.9983 -8.5228 8.9857)">
				<stop  offset="5.405410e-03" style="stop-color:#FFFFFF"/>
				<stop  offset="0.1641" style="stop-color:#C1C1C1"/>
				<stop  offset="0.3298" style="stop-color:#878787"/>
				<stop  offset="0.4905" style="stop-color:#565656"/>
				<stop  offset="0.6417" style="stop-color:#313131"/>
				<stop  offset="0.7813" style="stop-color:#161616"/>
				<stop  offset="0.905" style="stop-color:#060606"/>
				<stop  offset="1" style="stop-color:#000000"/>
			</linearGradient>
			
				<polygon style="mask:url(#SVGID_00000115502572417842531700000016043947847760304565_);fill:url(#SVGID_00000056398533031740008830000003829036874318103467_);" points="
				33.7,137.1 197.4,0 38.6,141.8 			"/>
		</g>
	</mask>
	
		<linearGradient id="SVGID_00000142154345105216113690000012678569220215630264_" gradientUnits="userSpaceOnUse" x1="25.3124" y1="148.8371" x2="225.0815" y2="-23.7705" gradientTransform="matrix(0.9983 -5.860000e-02 5.860000e-02 0.9983 -8.5228 8.9857)">
		<stop  offset="5.405410e-03" style="stop-color:#7367BD"/>
		<stop  offset="6.141820e-02" style="stop-color:#6B5FB0"/>
		<stop  offset="0.2844" style="stop-color:#4C4180"/>
		<stop  offset="0.4967" style="stop-color:#34295B"/>
		<stop  offset="0.6927" style="stop-color:#221840"/>
		<stop  offset="0.8664" style="stop-color:#180E30"/>
		<stop  offset="1" style="stop-color:#140A2A"/>
	</linearGradient>
	<polygon style="opacity:0.67;fill:url(#SVGID_00000142154345105216113690000012678569220215630264_);" points="33.7,137.1 197.4,0 
		38.6,141.8 	"/>
	<defs>
		
			<filter id="Adobe_OpacityMaskFilter_00000074401391119040943650000011769315277893021861_" filterUnits="userSpaceOnUse" x="16.5" y="8.1" width="206.2" height="198.7">
			<feFlood  style="flood-color:white;flood-opacity:1" result="back"/>
			<feBlend  in="SourceGraphic" in2="back" mode="normal"/>
		</filter>
	</defs>
	
		<mask maskUnits="userSpaceOnUse" x="16.5" y="8.1" width="206.2" height="198.7" id="SVGID_00000000915689606869924910000014057543182068406182_">
		<g style="filter:url(#Adobe_OpacityMaskFilter_00000074401391119040943650000011769315277893021861_);">
			<defs>
				
					<filter id="Adobe_OpacityMaskFilter_00000011011743377325121760000011437274217889753274_" filterUnits="userSpaceOnUse" x="16.5" y="8.1" width="206.2" height="198.7">
					<feFlood  style="flood-color:white;flood-opacity:1" result="back"/>
					<feBlend  in="SourceGraphic" in2="back" mode="normal"/>
				</filter>
			</defs>
			
				<mask maskUnits="userSpaceOnUse" x="16.5" y="8.1" width="206.2" height="198.7" id="SVGID_00000000915689606869924910000014057543182068406182_">
				<g style="filter:url(#Adobe_OpacityMaskFilter_00000011011743377325121760000011437274217889753274_);">
				</g>
			</mask>
			
				<linearGradient id="SVGID_00000011710952065993405390000011463927171700063920_" gradientUnits="userSpaceOnUse" x1="-4.8845" y1="214.7787" x2="262.4565" y2="-16.2136" gradientTransform="matrix(0.9983 -5.860000e-02 5.860000e-02 0.9983 -8.5228 8.9857)">
				<stop  offset="5.405410e-03" style="stop-color:#FFFFFF"/>
				<stop  offset="0.1641" style="stop-color:#C1C1C1"/>
				<stop  offset="0.3298" style="stop-color:#878787"/>
				<stop  offset="0.4905" style="stop-color:#565656"/>
				<stop  offset="0.6417" style="stop-color:#313131"/>
				<stop  offset="0.7813" style="stop-color:#161616"/>
				<stop  offset="0.905" style="stop-color:#060606"/>
				<stop  offset="1" style="stop-color:#000000"/>
			</linearGradient>
			
				<polygon style="mask:url(#SVGID_00000000915689606869924910000014057543182068406182_);fill:url(#SVGID_00000011710952065993405390000011463927171700063920_);" points="
				16.5,204.7 222.7,8.1 18.8,206.7 			"/>
		</g>
	</mask>
	
		<linearGradient id="SVGID_00000170273254920879641320000008338525485562635938_" gradientUnits="userSpaceOnUse" x1="-4.8845" y1="214.7787" x2="262.4565" y2="-16.2136" gradientTransform="matrix(0.9983 -5.860000e-02 5.860000e-02 0.9983 -8.5228 8.9857)">
		<stop  offset="5.405410e-03" style="stop-color:#69BDE7"/>
		<stop  offset="0.1962" style="stop-color:#5089B0"/>
		<stop  offset="0.3872" style="stop-color:#3B5C80"/>
		<stop  offset="0.569" style="stop-color:#2A385B"/>
		<stop  offset="0.7368" style="stop-color:#1E1F40"/>
		<stop  offset="0.8856" style="stop-color:#170F30"/>
		<stop  offset="1" style="stop-color:#140A2A"/>
	</linearGradient>
	<polygon style="fill:url(#SVGID_00000170273254920879641320000008338525485562635938_);" points="16.5,204.7 222.7,8.1 18.8,206.7 
			"/>
	<g>
		<g>
			<path class="st16" d="M19.4,199l3.9-5.5l-0.9-0.8l0.9,0.8l10.1-14.2l-4.5-4.6l-1.8,3.2l1.8-3.2l-0.7-0.7l0.7,0.7l2.9-5.1
				l-0.8-0.8l-8.3,9.5l2.7,3.1l1.3-1.3l-1.3,1.3l2.1,2.4l-2.1-2.4l-11,11l1.2,1.3l-1.2-1.3l-2.7,2.7l2.7-2.7l-6.8-6.9L6.2,187
				l1.3-1.4l-2-2l2,2l1.9-2l-5.4-5c-0.8,0.5-1.6,1.1-2.3,1.6c-1.7,1.2-2.2,3.4-1.2,5.2l4.3,7.5c0.1,0.2,0.2,0.5,0.3,0.7
				c0.5,1.7-1.1,2.1-1.9,3.1c-1.6,1.9,0.6,4.6,2.6,6.1c3.2,2.4,6.5,4.9,9.7,7.3c0.3,0.2,0.7,0.5,1.1,0.4c0.4,0,0.7-0.4,0.9-0.6
				l10.4-12.1l-4.6-4.1L19.4,199z"/>
		</g>
		<g>
			<path class="st17" d="M39.5,178.7c-1.4-1.8-3-3.4-4.7-4.9c-1-0.9-1.3-2.5-0.6-3.7l2.8-4.9c0.2-0.3,0.4-0.7,0.4-1.1
				c0-0.6-0.5-1-1-1.4c-1.8-1.5-3.5-2.9-5.3-4.4c-1.4-1.2-3.4-1.2-4.9-0.2c-3,2.2-6.3,4.1-9.7,5.6c-4,1.8-2.1,5.7-4.8,8.5
				c-2.2,2.3-5,4.3-7.8,6.2l5.4,5l1-1.1l-1,1.1l2.1,1.9l-2.1-1.9l-1.9,2l6.8,6.9l11-11l-2.7-3.1l-1.8,2l1.8-2l-0.8-0.9l0.8,0.9
				l8.3-9.5l-1.4-1.4l1.4,1.4l1.1-1.3l-1.1,1.3l0.8,0.8l0.9-1.6l-0.9,1.6l0.3,0.3l-0.3-0.3l-2.9,5.1l4.5,4.6l1-1.4l-1,1.4l1.8,1.8
				l-1.8-1.8l-10.1,14.2l4.6,4.1L39.5,184C40.8,182.5,40.8,180.3,39.5,178.7z"/>
		</g>
	</g>
	<g>
		<path class="st16" d="M36.5,136.1l-2.4,0.6c-0.9,0.2-1.4,1.1-1,2l0.2,0.6c0.2,0.6,0.1,1.3-0.4,1.7l-0.3,0.2
			c-0.6,0.5-0.7,1.5-0.2,2.1l0.8,1c0.5,0.6,1.4,0.7,2.1,0.2l3.2-2.6c0.4-0.4,0.6-1,0.5-1.5l-0.8-3.1
			C38.1,136.4,37.3,135.9,36.5,136.1z"/>
	</g>
	<g>
		<path class="st17" d="M47.8,165.4l-1,0.2c-0.4,0.1-0.6,0.5-0.4,0.8l0.1,0.3c0.1,0.3,0,0.5-0.2,0.7l-0.1,0.1
			c-0.3,0.2-0.3,0.6-0.1,0.9l0.4,0.4c0.2,0.3,0.6,0.3,0.9,0.1l1.4-1.1c0.2-0.2,0.3-0.4,0.2-0.7l-0.4-1.3
			C48.5,165.5,48.1,165.3,47.8,165.4z"/>
	</g>
	<g>
		<path class="st17" d="M49.5,181l-0.5-0.1c-0.2,0-0.5,0.2-0.7,0.5l-0.1,0.2c-0.1,0.2-0.3,0.4-0.5,0.5l-0.1,0
			c-0.2,0.1-0.5,0.4-0.6,0.7l-0.1,0.4c-0.1,0.3,0,0.4,0.3,0.3l1.2-0.5c0.2-0.1,0.4-0.3,0.5-0.5l0.7-1.1
			C49.7,181.2,49.7,181,49.5,181z"/>
	</g>
</g>
</svg>
