<?xml version="1.0" encoding="utf-8"?>
<!-- Generator: Adobe Illustrator 25.4.1, SVG Export Plug-In . SVG Version: 6.00 Build 0)  -->
<svg version="1.1" id="Layer_1" xmlns="http://www.w3.org/2000/svg" xmlns:xlink="http://www.w3.org/1999/xlink" x="0px" y="0px"
	 viewBox="0 0 258.8 215.2" style="enable-background:new 0 0 258.8 215.2;" xml:space="preserve">
<style type="text/css">
	.st0{filter:url(#Adobe_OpacityMaskFilter);}
	.st1{filter:url(#Adobe_OpacityMaskFilter_00000047023851473193732270000014973710297769678989_);}
	.st2{mask:url(#SVGID_1_);fill:url(#SVGID_00000083782640739059086840000013173650461349741493_);}
	.st3{fill:url(#SVGID_00000103976622783569889530000000567847855137188025_);}
	.st4{filter:url(#Adobe_OpacityMaskFilter_00000086692363234943006280000012550518286195751579_);}
	.st5{filter:url(#Adobe_OpacityMaskFilter_00000158725562886924574060000001599332371482243478_);}
	
		.st6{mask:url(#SVGID_00000122680292136633086280000017258592507525562517_);fill:url(#SVGID_00000054966446019353204980000013142918745916986498_);}
	.st7{filter:url(#Adobe_OpacityMaskFilter_00000106841128829181228480000000877080044083912379_);}
	.st8{filter:url(#Adobe_OpacityMaskFilter_00000182508496989922319430000007151406471474159012_);}
	
		.st9{mask:url(#SVGID_00000109725041522709949320000009699420675276146304_);fill:url(#SVGID_00000164484290791670246130000003157540869078410657_);}
	.st10{fill:url(#SVGID_00000011023446402287376350000018086436576807472775_);}
	.st11{fill:#FFA159;}
	.st12{fill:#DE494B;}
	.st13{filter:url(#Adobe_OpacityMaskFilter_00000011751063786063613520000000755334767855879871_);}
	.st14{filter:url(#Adobe_OpacityMaskFilter_00000130639284478868062690000010431833536616620726_);}
	
		.st15{mask:url(#SVGID_00000079460270215588753740000005055778001387210386_);fill:url(#SVGID_00000116929451928301402900000008841723384518265502_);}
	.st16{fill:url(#SVGID_00000034082202517877037700000014206506604733956541_);}
	.st17{fill:#F88968;}
	.st18{filter:url(#Adobe_OpacityMaskFilter_00000128459161825135450150000011083384062768859790_);}
	.st19{filter:url(#Adobe_OpacityMaskFilter_00000132066064286964226750000010093684067386784157_);}
	
		.st20{mask:url(#SVGID_00000002356994393589678180000000794907565533318033_);fill:url(#SVGID_00000004529609570613504080000006656192139533749939_);}
	.st21{opacity:0.67;fill:url(#SVGID_00000111881830494202296910000001478999785622658737_);}
	.st22{filter:url(#Adobe_OpacityMaskFilter_00000176736747807928247390000005955718831040692120_);}
	.st23{filter:url(#Adobe_OpacityMaskFilter_00000120538014889552710190000000719179106730742446_);}
	
		.st24{mask:url(#SVGID_00000172418654825286933170000002120922255283050413_);fill:url(#SVGID_00000150088609183636204300000015706548550735586210_);}
	.st25{fill:url(#SVGID_00000182524568388440684620000005947619030153051069_);}
	.st26{filter:url(#Adobe_OpacityMaskFilter_00000072255597407306894980000012562801370351071679_);}
	.st27{filter:url(#Adobe_OpacityMaskFilter_00000015348037702149053430000013675896213357622166_);}
	
		.st28{mask:url(#SVGID_00000177449407793737181340000010768571697054287762_);fill:url(#SVGID_00000077291627607463230200000001170465943322049457_);}
	.st29{opacity:0.67;fill:url(#SVGID_00000122679718120806709950000000910872522126839680_);}
	.st30{filter:url(#Adobe_OpacityMaskFilter_00000070813820405058706990000012026088946468886461_);}
	.st31{filter:url(#Adobe_OpacityMaskFilter_00000039825174758819164160000010679733143948550052_);}
	
		.st32{mask:url(#SVGID_00000020366964004921136070000008521440889521703867_);fill:url(#SVGID_00000150796265631165018040000006338500322438187158_);}
	.st33{fill:url(#SVGID_00000166659987390422590320000008470013483956724151_);}
	.st34{filter:url(#Adobe_OpacityMaskFilter_00000163070849929738368580000006505189059337219474_);}
	.st35{filter:url(#Adobe_OpacityMaskFilter_00000182516172056862854530000008035170789154102165_);}
	
		.st36{mask:url(#SVGID_00000122714850403884353010000011253635839239609485_);fill:url(#SVGID_00000020381133113447941620000013191852704864315058_);}
	.st37{opacity:0.67;fill:url(#SVGID_00000034049408630133170490000005282096440040809399_);}
	.st38{filter:url(#Adobe_OpacityMaskFilter_00000146474015062416592500000012173368797715341963_);}
	.st39{filter:url(#Adobe_OpacityMaskFilter_00000008871425253585376380000013694906446831478716_);}
	
		.st40{mask:url(#SVGID_00000006694286040086098040000010438939969264576643_);fill:url(#SVGID_00000148653753941904810220000006296199758923348125_);}
	.st41{opacity:0.67;fill:url(#SVGID_00000003800029951928232450000013773652684608276387_);}
</style>
<g>
	<g>
		<defs>
			<filter id="Adobe_OpacityMaskFilter" filterUnits="userSpaceOnUse" x="0" y="163.1" width="52.2" height="52.1">
				<feFlood  style="flood-color:white;flood-opacity:1" result="back"/>
				<feBlend  in="SourceGraphic" in2="back" mode="normal"/>
			</filter>
		</defs>
		<mask maskUnits="userSpaceOnUse" x="0" y="163.1" width="52.2" height="52.1" id="SVGID_1_">
			<g class="st0">
				<defs>
					
						<filter id="Adobe_OpacityMaskFilter_00000153664857927225236080000013083818200027099837_" filterUnits="userSpaceOnUse" x="0" y="163.1" width="52.2" height="52.1">
						<feFlood  style="flood-color:white;flood-opacity:1" result="back"/>
						<feBlend  in="SourceGraphic" in2="back" mode="normal"/>
					</filter>
				</defs>
				<mask maskUnits="userSpaceOnUse" x="0" y="163.1" width="52.2" height="52.1" id="SVGID_1_">
					<g style="filter:url(#Adobe_OpacityMaskFilter_00000153664857927225236080000013083818200027099837_);">
					</g>
				</mask>
				
					<radialGradient id="SVGID_00000109710003517475337520000013912678934315363482_" cx="26.0598" cy="188.8259" r="26.0729" gradientTransform="matrix(1.0007 0 0 0.9998 1.340559e-02 0.3349)" gradientUnits="userSpaceOnUse">
					<stop  offset="0" style="stop-color:#FFFFFF"/>
					<stop  offset="0.1363" style="stop-color:#FBFBFB"/>
					<stop  offset="0.2633" style="stop-color:#F0F0F0"/>
					<stop  offset="0.3867" style="stop-color:#DDDDDD"/>
					<stop  offset="0.5078" style="stop-color:#C3C3C3"/>
					<stop  offset="0.6273" style="stop-color:#A0A0A0"/>
					<stop  offset="0.7456" style="stop-color:#767676"/>
					<stop  offset="0.863" style="stop-color:#454545"/>
					<stop  offset="0.9768" style="stop-color:#0C0C0C"/>
					<stop  offset="1" style="stop-color:#000000"/>
				</radialGradient>
				<path style="mask:url(#SVGID_1_);fill:url(#SVGID_00000109710003517475337520000013912678934315363482_);" d="M26.1,163.1
					c-7.9,0-15,3.5-19.8,9.1c-3.9,4.6-6.3,10.5-6.3,17c0,14.4,11.7,26.1,26.1,26.1c11.8,0,21.8-7.8,25-18.6c0.7-2.4,1.1-4.9,1.1-7.5
					C52.2,174.7,40.5,163.1,26.1,163.1z"/>
			</g>
		</mask>
		
			<radialGradient id="SVGID_00000016040305977499560200000015748648052827383220_" cx="26.0598" cy="188.8259" r="26.0729" gradientTransform="matrix(1.0007 0 0 0.9998 1.340559e-02 0.3349)" gradientUnits="userSpaceOnUse">
			<stop  offset="0" style="stop-color:#F88968"/>
			<stop  offset="0.144" style="stop-color:#F48767"/>
			<stop  offset="0.2781" style="stop-color:#E98065"/>
			<stop  offset="0.4084" style="stop-color:#D67561"/>
			<stop  offset="0.5362" style="stop-color:#BC655B"/>
			<stop  offset="0.6624" style="stop-color:#995154"/>
			<stop  offset="0.7873" style="stop-color:#6F384C"/>
			<stop  offset="0.9088" style="stop-color:#3F1B42"/>
			<stop  offset="1" style="stop-color:#150239"/>
		</radialGradient>
		<path style="fill:url(#SVGID_00000016040305977499560200000015748648052827383220_);" d="M26.1,163.1c-7.9,0-15,3.5-19.8,9.1
			c-3.9,4.6-6.3,10.5-6.3,17c0,14.4,11.7,26.1,26.1,26.1c11.8,0,21.8-7.8,25-18.6c0.7-2.4,1.1-4.9,1.1-7.5
			C52.2,174.7,40.5,163.1,26.1,163.1z"/>
	</g>
	<defs>
		
			<filter id="Adobe_OpacityMaskFilter_00000072968800820893665440000011809829622475409849_" filterUnits="userSpaceOnUse" x="18.1" y="0" width="240.6" height="194.1">
			<feFlood  style="flood-color:white;flood-opacity:1" result="back"/>
			<feBlend  in="SourceGraphic" in2="back" mode="normal"/>
		</filter>
	</defs>
	
		<mask maskUnits="userSpaceOnUse" x="18.1" y="0" width="240.6" height="194.1" id="SVGID_00000062878666517787727210000009625927284164155799_">
		<g style="filter:url(#Adobe_OpacityMaskFilter_00000072968800820893665440000011809829622475409849_);">
			<defs>
				
					<filter id="Adobe_OpacityMaskFilter_00000082352789990166589860000005112071837131894957_" filterUnits="userSpaceOnUse" x="18.1" y="0" width="240.6" height="194.1">
					<feFlood  style="flood-color:white;flood-opacity:1" result="back"/>
					<feBlend  in="SourceGraphic" in2="back" mode="normal"/>
				</filter>
			</defs>
			
				<mask maskUnits="userSpaceOnUse" x="18.1" y="0" width="240.6" height="194.1" id="SVGID_00000062878666517787727210000009625927284164155799_">
				<g style="filter:url(#Adobe_OpacityMaskFilter_00000082352789990166589860000005112071837131894957_);">
				</g>
			</mask>
			
				<linearGradient id="SVGID_00000065753996628492199890000000075668072828000702_" gradientUnits="userSpaceOnUse" x1="6.246" y1="203.9167" x2="285.5051" y2="-37.3732">
				<stop  offset="0" style="stop-color:#FFFFFF"/>
				<stop  offset="0.1595" style="stop-color:#C1C1C1"/>
				<stop  offset="0.3262" style="stop-color:#878787"/>
				<stop  offset="0.4877" style="stop-color:#565656"/>
				<stop  offset="0.6398" style="stop-color:#313131"/>
				<stop  offset="0.7801" style="stop-color:#161616"/>
				<stop  offset="0.9045" style="stop-color:#060606"/>
				<stop  offset="1" style="stop-color:#000000"/>
			</linearGradient>
			
				<polygon style="mask:url(#SVGID_00000062878666517787727210000009625927284164155799_);fill:url(#SVGID_00000065753996628492199890000000075668072828000702_);" points="
				18.1,176.7 258.8,0 37.2,194.1 			"/>
		</g>
	</mask>
	<g>
		<defs>
			
				<filter id="Adobe_OpacityMaskFilter_00000156556257867541421760000016200700441843298435_" filterUnits="userSpaceOnUse" x="18.1" y="0" width="240.6" height="194.1">
				<feFlood  style="flood-color:white;flood-opacity:1" result="back"/>
				<feBlend  in="SourceGraphic" in2="back" mode="normal"/>
			</filter>
		</defs>
		
			<mask maskUnits="userSpaceOnUse" x="18.1" y="0" width="240.6" height="194.1" id="SVGID_00000014600886385626018530000015375359170461575055_">
			<g style="filter:url(#Adobe_OpacityMaskFilter_00000156556257867541421760000016200700441843298435_);">
				<defs>
					
						<filter id="Adobe_OpacityMaskFilter_00000023968094131733169450000004257337325636313279_" filterUnits="userSpaceOnUse" x="18.1" y="0" width="240.6" height="194.1">
						<feFlood  style="flood-color:white;flood-opacity:1" result="back"/>
						<feBlend  in="SourceGraphic" in2="back" mode="normal"/>
					</filter>
				</defs>
				
					<mask maskUnits="userSpaceOnUse" x="18.1" y="0" width="240.6" height="194.1" id="SVGID_00000014600886385626018530000015375359170461575055_">
					<g style="filter:url(#Adobe_OpacityMaskFilter_00000023968094131733169450000004257337325636313279_);">
					</g>
				</mask>
				
					<linearGradient id="SVGID_00000074438330192527694460000007619976295850945454_" gradientUnits="userSpaceOnUse" x1="6.246" y1="203.9167" x2="285.5051" y2="-37.3732">
					<stop  offset="0" style="stop-color:#FFFFFF"/>
					<stop  offset="0.1595" style="stop-color:#C1C1C1"/>
					<stop  offset="0.3262" style="stop-color:#878787"/>
					<stop  offset="0.4877" style="stop-color:#565656"/>
					<stop  offset="0.6398" style="stop-color:#313131"/>
					<stop  offset="0.7801" style="stop-color:#161616"/>
					<stop  offset="0.9045" style="stop-color:#060606"/>
					<stop  offset="1" style="stop-color:#000000"/>
				</linearGradient>
				
					<polygon style="mask:url(#SVGID_00000014600886385626018530000015375359170461575055_);fill:url(#SVGID_00000074438330192527694460000007619976295850945454_);" points="
					18.1,176.7 258.8,0 37.2,194.1 				"/>
			</g>
		</mask>
		
			<linearGradient id="SVGID_00000088814482212043379710000003473109034874678971_" gradientUnits="userSpaceOnUse" x1="6.246" y1="203.9167" x2="285.5051" y2="-37.3732">
			<stop  offset="0" style="stop-color:#F88968"/>
			<stop  offset="9.694695e-02" style="stop-color:#D57461"/>
			<stop  offset="0.2762" style="stop-color:#9C5255"/>
			<stop  offset="0.4496" style="stop-color:#6B354B"/>
			<stop  offset="0.6129" style="stop-color:#461F43"/>
			<stop  offset="0.7637" style="stop-color:#2B0F3E"/>
			<stop  offset="0.8974" style="stop-color:#1B053A"/>
			<stop  offset="1" style="stop-color:#150239"/>
		</linearGradient>
		<polygon style="fill:url(#SVGID_00000088814482212043379710000003473109034874678971_);" points="18.1,176.7 258.8,0 37.2,194.1 
					"/>
	</g>
	<g>
		<path class="st11" d="M14.5,183.7c3.3-2.9,7.4-4.9,11.9-5.7c-3.3,4.5-4.9,9.8-7.4,14.7c2-1.2,3.7-3.3,5.7-4.5
			c0,1.2-1.2,2.5-1.2,3.7c3.3-1.6,5.7-4.1,8.6-6.1c0,2.9-1.2,5.7-2.5,8.6c3.3-3.3,7.4-6.5,7.8-11c0.8,4.9,0,9.8-2.5,14.3
			c1.9-1.3,3.4-3,4.7-4.9c0.4-1.4,0.6-2.8,0.6-4.3c0-8.3-6.7-15-15-15c-4.6,0-8.6,2-11.4,5.2c1.2-0.9,2.6-1.5,4.3-1.9
			C16.5,178.8,15.3,181.2,14.5,183.7z"/>
		<g>
			<path class="st12" d="M34.9,197.6c2.5-4.5,3.3-9.4,2.5-14.3c-0.4,4.5-4.5,7.8-7.8,11c1.2-2.9,2.5-5.7,2.5-8.6
				c-2.9,2-5.3,4.5-8.6,6.1c0-1.2,1.2-2.5,1.2-3.7c-2,1.2-3.7,3.3-5.7,4.5c2.5-4.9,4.1-10.2,7.4-14.7c-4.5,0.8-8.6,2.9-11.9,5.7
				c0.8-2.5,2-4.9,3.7-6.9c-1.6,0.4-3.1,1-4.3,1.9c-2.3,2.6-3.6,6-3.6,9.7c0,8.3,6.7,15,15,15c6.8,0,12.5-4.5,14.4-10.7
				C38.3,194.5,36.8,196.3,34.9,197.6z"/>
		</g>
	</g>
	<g>
		<defs>
			
				<filter id="Adobe_OpacityMaskFilter_00000143597479220052472030000000524752291933821092_" filterUnits="userSpaceOnUse" x="55.1" y="46.9" width="129.9" height="90.2">
				<feFlood  style="flood-color:white;flood-opacity:1" result="back"/>
				<feBlend  in="SourceGraphic" in2="back" mode="normal"/>
			</filter>
		</defs>
		
			<mask maskUnits="userSpaceOnUse" x="55.1" y="46.9" width="129.9" height="90.2" id="SVGID_00000088112376996597718090000011812692724114165888_">
			<g style="filter:url(#Adobe_OpacityMaskFilter_00000143597479220052472030000000524752291933821092_);">
				<defs>
					
						<filter id="Adobe_OpacityMaskFilter_00000028310270695417678900000015660357688375280293_" filterUnits="userSpaceOnUse" x="55.1" y="46.9" width="129.9" height="90.2">
						<feFlood  style="flood-color:white;flood-opacity:1" result="back"/>
						<feBlend  in="SourceGraphic" in2="back" mode="normal"/>
					</filter>
				</defs>
				
					<mask maskUnits="userSpaceOnUse" x="55.1" y="46.9" width="129.9" height="90.2" id="SVGID_00000088112376996597718090000011812692724114165888_">
					<g style="filter:url(#Adobe_OpacityMaskFilter_00000028310270695417678900000015660357688375280293_);">
					</g>
				</mask>
				
					<linearGradient id="SVGID_00000117678513647121721470000012177862369599710336_" gradientUnits="userSpaceOnUse" x1="46.219" y1="138.612" x2="192.401" y2="12.3054" gradientTransform="matrix(0.9976 6.860000e-02 -6.860000e-02 0.9976 9.9168 3.9043)">
					<stop  offset="0" style="stop-color:#FFFFFF"/>
					<stop  offset="0.1595" style="stop-color:#C1C1C1"/>
					<stop  offset="0.3262" style="stop-color:#878787"/>
					<stop  offset="0.4877" style="stop-color:#565656"/>
					<stop  offset="0.6398" style="stop-color:#313131"/>
					<stop  offset="0.7801" style="stop-color:#161616"/>
					<stop  offset="0.9045" style="stop-color:#060606"/>
					<stop  offset="1" style="stop-color:#000000"/>
				</linearGradient>
				
					<polygon style="mask:url(#SVGID_00000088112376996597718090000011812692724114165888_);fill:url(#SVGID_00000117678513647121721470000012177862369599710336_);" points="
					55.1,133.4 185,46.9 58.6,137.1 				"/>
			</g>
		</mask>
		
			<linearGradient id="SVGID_00000172425843296299730130000014798827200389932183_" gradientUnits="userSpaceOnUse" x1="46.219" y1="138.612" x2="192.401" y2="12.3054" gradientTransform="matrix(0.9976 6.860000e-02 -6.860000e-02 0.9976 9.9168 3.9043)">
			<stop  offset="0" style="stop-color:#F88968"/>
			<stop  offset="9.694695e-02" style="stop-color:#D57461"/>
			<stop  offset="0.2762" style="stop-color:#9C5255"/>
			<stop  offset="0.4496" style="stop-color:#6B354B"/>
			<stop  offset="0.6129" style="stop-color:#461F43"/>
			<stop  offset="0.7637" style="stop-color:#2B0F3E"/>
			<stop  offset="0.8974" style="stop-color:#1B053A"/>
			<stop  offset="1" style="stop-color:#150239"/>
		</linearGradient>
		<polygon style="fill:url(#SVGID_00000172425843296299730130000014798827200389932183_);" points="55.1,133.4 185,46.9 58.6,137.1 
					"/>
		<path class="st17" d="M59.4,135.4c-0.1,1.5-1.4,2.6-2.8,2.5c-1.5-0.1-2.6-1.4-2.5-2.8c0.1-1.5,1.4-2.6,2.8-2.5
			C58.4,132.7,59.5,133.9,59.4,135.4z"/>
		<defs>
			
				<filter id="Adobe_OpacityMaskFilter_00000008871149585519357290000004186677387258372528_" filterUnits="userSpaceOnUse" x="54.2" y="129.1" width="11.6" height="8.8">
				<feFlood  style="flood-color:white;flood-opacity:1" result="back"/>
				<feBlend  in="SourceGraphic" in2="back" mode="normal"/>
			</filter>
		</defs>
		
			<mask maskUnits="userSpaceOnUse" x="54.2" y="129.1" width="11.6" height="8.8" id="SVGID_00000031930073544410403050000017536265479060191160_">
			<g style="filter:url(#Adobe_OpacityMaskFilter_00000008871149585519357290000004186677387258372528_);">
				<defs>
					
						<filter id="Adobe_OpacityMaskFilter_00000018224552391531506410000009009583166551837584_" filterUnits="userSpaceOnUse" x="54.2" y="129.1" width="11.6" height="8.8">
						<feFlood  style="flood-color:white;flood-opacity:1" result="back"/>
						<feBlend  in="SourceGraphic" in2="back" mode="normal"/>
					</filter>
				</defs>
				
					<mask maskUnits="userSpaceOnUse" x="54.2" y="129.1" width="11.6" height="8.8" id="SVGID_00000031930073544410403050000017536265479060191160_">
					<g style="filter:url(#Adobe_OpacityMaskFilter_00000018224552391531506410000009009583166551837584_);">
					</g>
				</mask>
				
					<linearGradient id="SVGID_00000179610931019371923370000013190319067574506387_" gradientUnits="userSpaceOnUse" x1="52.979" y1="129.6414" x2="65.7028" y2="118.6476" gradientTransform="matrix(0.994 0.1097 -0.1097 0.994 15.1741 2.7801)">
					<stop  offset="0" style="stop-color:#FFFFFF"/>
					<stop  offset="0.1363" style="stop-color:#FBFBFB"/>
					<stop  offset="0.2633" style="stop-color:#F0F0F0"/>
					<stop  offset="0.3867" style="stop-color:#DDDDDD"/>
					<stop  offset="0.5078" style="stop-color:#C3C3C3"/>
					<stop  offset="0.6273" style="stop-color:#A0A0A0"/>
					<stop  offset="0.7456" style="stop-color:#767676"/>
					<stop  offset="0.863" style="stop-color:#454545"/>
					<stop  offset="0.9768" style="stop-color:#0C0C0C"/>
					<stop  offset="1" style="stop-color:#000000"/>
				</linearGradient>
				
					<path style="mask:url(#SVGID_00000031930073544410403050000017536265479060191160_);fill:url(#SVGID_00000179610931019371923370000013190319067574506387_);" d="
					M65.8,129.1c-4.9,1.1-8,2.9-9,3.6c-0.7,0-1.4,0.2-1.8,0.7c-0.4,0.4-0.7,1-0.8,1.6c-0.2,1.4,0.9,2.7,2.3,2.9
					c1.2,0.1,2.3-0.5,2.7-1.6c0-0.1,0.1-0.2,0.1-0.4C60.4,135.1,63.2,133,65.8,129.1z"/>
			</g>
		</mask>
		
			<linearGradient id="SVGID_00000145747153688280813830000005660000184928266638_" gradientUnits="userSpaceOnUse" x1="52.979" y1="129.6414" x2="65.7028" y2="118.6476" gradientTransform="matrix(0.994 0.1097 -0.1097 0.994 15.1741 2.7801)">
			<stop  offset="0" style="stop-color:#F88968"/>
			<stop  offset="0.144" style="stop-color:#F48767"/>
			<stop  offset="0.2781" style="stop-color:#E98065"/>
			<stop  offset="0.4084" style="stop-color:#D67561"/>
			<stop  offset="0.5362" style="stop-color:#BC655B"/>
			<stop  offset="0.6624" style="stop-color:#995154"/>
			<stop  offset="0.7873" style="stop-color:#6F384C"/>
			<stop  offset="0.9088" style="stop-color:#3F1B42"/>
			<stop  offset="1" style="stop-color:#150239"/>
		</linearGradient>
		<path style="opacity:0.67;fill:url(#SVGID_00000145747153688280813830000005660000184928266638_);" d="M65.8,129.1
			c-4.9,1.1-8,2.9-9,3.6c-0.7,0-1.4,0.2-1.8,0.7c-0.4,0.4-0.7,1-0.8,1.6c-0.2,1.4,0.9,2.7,2.3,2.9c1.2,0.1,2.3-0.5,2.7-1.6
			c0-0.1,0.1-0.2,0.1-0.4C60.4,135.1,63.2,133,65.8,129.1z"/>
	</g>
	<g>
		<defs>
			
				<filter id="Adobe_OpacityMaskFilter_00000119821754796896866530000000966121085440022667_" filterUnits="userSpaceOnUse" x="103.7" y="38.9" width="107" height="86.1">
				<feFlood  style="flood-color:white;flood-opacity:1" result="back"/>
				<feBlend  in="SourceGraphic" in2="back" mode="normal"/>
			</filter>
		</defs>
		
			<mask maskUnits="userSpaceOnUse" x="103.7" y="38.9" width="107" height="86.1" id="SVGID_00000035508897287892116900000008742027505698669963_">
			<g style="filter:url(#Adobe_OpacityMaskFilter_00000119821754796896866530000000966121085440022667_);">
				<defs>
					
						<filter id="Adobe_OpacityMaskFilter_00000032614186518201260960000001917599900945742227_" filterUnits="userSpaceOnUse" x="103.7" y="38.9" width="107" height="86.1">
						<feFlood  style="flood-color:white;flood-opacity:1" result="back"/>
						<feBlend  in="SourceGraphic" in2="back" mode="normal"/>
					</filter>
				</defs>
				
					<mask maskUnits="userSpaceOnUse" x="103.7" y="38.9" width="107" height="86.1" id="SVGID_00000035508897287892116900000008742027505698669963_">
					<g style="filter:url(#Adobe_OpacityMaskFilter_00000032614186518201260960000001917599900945742227_);">
					</g>
				</mask>
				
					<linearGradient id="SVGID_00000065791052643661085480000014736523401380111807_" gradientUnits="userSpaceOnUse" x1="95.6691" y1="125.1114" x2="224.0139" y2="14.2169" gradientTransform="matrix(0.9999 1.550000e-02 -1.550000e-02 0.9999 1.5657 6.7809)">
					<stop  offset="0" style="stop-color:#FFFFFF"/>
					<stop  offset="0.1595" style="stop-color:#C1C1C1"/>
					<stop  offset="0.3262" style="stop-color:#878787"/>
					<stop  offset="0.4877" style="stop-color:#565656"/>
					<stop  offset="0.6398" style="stop-color:#313131"/>
					<stop  offset="0.7801" style="stop-color:#161616"/>
					<stop  offset="0.9045" style="stop-color:#060606"/>
					<stop  offset="1" style="stop-color:#000000"/>
				</linearGradient>
				
					<polygon style="mask:url(#SVGID_00000035508897287892116900000008742027505698669963_);fill:url(#SVGID_00000065791052643661085480000014736523401380111807_);" points="
					103.7,124.2 210.7,38.9 104.5,125 				"/>
			</g>
		</mask>
		
			<linearGradient id="SVGID_00000178174364059311430480000012638406051916396456_" gradientUnits="userSpaceOnUse" x1="95.6691" y1="125.1114" x2="224.0139" y2="14.2169" gradientTransform="matrix(0.9999 1.550000e-02 -1.550000e-02 0.9999 1.5657 6.7809)">
			<stop  offset="0" style="stop-color:#F88968"/>
			<stop  offset="9.694695e-02" style="stop-color:#D57461"/>
			<stop  offset="0.2762" style="stop-color:#9C5255"/>
			<stop  offset="0.4496" style="stop-color:#6B354B"/>
			<stop  offset="0.6129" style="stop-color:#461F43"/>
			<stop  offset="0.7637" style="stop-color:#2B0F3E"/>
			<stop  offset="0.8974" style="stop-color:#1B053A"/>
			<stop  offset="1" style="stop-color:#150239"/>
		</linearGradient>
		<polygon style="fill:url(#SVGID_00000178174364059311430480000012638406051916396456_);" points="103.7,124.2 210.7,38.9 
			104.5,125 		"/>
		<path class="st17" d="M104.6,124.6c0,0.3-0.3,0.6-0.6,0.6c-0.3,0-0.6-0.3-0.6-0.6c0-0.3,0.3-0.6,0.6-0.6
			C104.4,124,104.6,124.3,104.6,124.6z"/>
		<defs>
			
				<filter id="Adobe_OpacityMaskFilter_00000183960821451105949810000016825511411901488802_" filterUnits="userSpaceOnUse" x="103.5" y="123.1" width="2.5" height="2.1">
				<feFlood  style="flood-color:white;flood-opacity:1" result="back"/>
				<feBlend  in="SourceGraphic" in2="back" mode="normal"/>
			</filter>
		</defs>
		
			<mask maskUnits="userSpaceOnUse" x="103.5" y="123.1" width="2.5" height="2.1" id="SVGID_00000124842381589758634910000013346399014819797124_">
			<g style="filter:url(#Adobe_OpacityMaskFilter_00000183960821451105949810000016825511411901488802_);">
				<defs>
					
						<filter id="Adobe_OpacityMaskFilter_00000070815059681921185310000017267685968568492439_" filterUnits="userSpaceOnUse" x="103.5" y="123.1" width="2.5" height="2.1">
						<feFlood  style="flood-color:white;flood-opacity:1" result="back"/>
						<feBlend  in="SourceGraphic" in2="back" mode="normal"/>
					</filter>
				</defs>
				
					<mask maskUnits="userSpaceOnUse" x="103.5" y="123.1" width="2.5" height="2.1" id="SVGID_00000124842381589758634910000013346399014819797124_">
					<g style="filter:url(#Adobe_OpacityMaskFilter_00000070815059681921185310000017267685968568492439_);">
					</g>
				</mask>
				
					<linearGradient id="SVGID_00000012465975083617696910000015617628618081053602_" gradientUnits="userSpaceOnUse" x1="103.7778" y1="115.0289" x2="106.5963" y2="112.5936" gradientTransform="matrix(0.9984 5.670000e-02 -5.670000e-02 0.9984 6.3016 4.3858)">
					<stop  offset="0" style="stop-color:#FFFFFF"/>
					<stop  offset="0.1363" style="stop-color:#FBFBFB"/>
					<stop  offset="0.2633" style="stop-color:#F0F0F0"/>
					<stop  offset="0.3867" style="stop-color:#DDDDDD"/>
					<stop  offset="0.5078" style="stop-color:#C3C3C3"/>
					<stop  offset="0.6273" style="stop-color:#A0A0A0"/>
					<stop  offset="0.7456" style="stop-color:#767676"/>
					<stop  offset="0.863" style="stop-color:#454545"/>
					<stop  offset="0.9768" style="stop-color:#0C0C0C"/>
					<stop  offset="1" style="stop-color:#000000"/>
				</linearGradient>
				
					<path style="mask:url(#SVGID_00000124842381589758634910000013346399014819797124_);fill:url(#SVGID_00000012465975083617696910000015617628618081053602_);" d="
					M106,123.1c-1.1,0.3-1.7,0.7-1.9,0.9c-0.2,0-0.3,0.1-0.4,0.2c-0.1,0.1-0.2,0.2-0.2,0.4c0,0.3,0.2,0.6,0.5,0.6
					c0.3,0,0.5-0.1,0.6-0.4c0,0,0-0.1,0-0.1C104.9,124.5,105.4,124,106,123.1z"/>
			</g>
		</mask>
		
			<linearGradient id="SVGID_00000065784181559744245210000003484938924790163893_" gradientUnits="userSpaceOnUse" x1="103.7778" y1="115.0289" x2="106.5963" y2="112.5936" gradientTransform="matrix(0.9984 5.670000e-02 -5.670000e-02 0.9984 6.3016 4.3858)">
			<stop  offset="0" style="stop-color:#F88968"/>
			<stop  offset="0.144" style="stop-color:#F48767"/>
			<stop  offset="0.2781" style="stop-color:#E98065"/>
			<stop  offset="0.4084" style="stop-color:#D67561"/>
			<stop  offset="0.5362" style="stop-color:#BC655B"/>
			<stop  offset="0.6624" style="stop-color:#995154"/>
			<stop  offset="0.7873" style="stop-color:#6F384C"/>
			<stop  offset="0.9088" style="stop-color:#3F1B42"/>
			<stop  offset="1" style="stop-color:#150239"/>
		</linearGradient>
		<path style="opacity:0.67;fill:url(#SVGID_00000065784181559744245210000003484938924790163893_);" d="M106,123.1
			c-1.1,0.3-1.7,0.7-1.9,0.9c-0.2,0-0.3,0.1-0.4,0.2c-0.1,0.1-0.2,0.2-0.2,0.4c0,0.3,0.2,0.6,0.5,0.6c0.3,0,0.5-0.1,0.6-0.4
			c0,0,0-0.1,0-0.1C104.9,124.5,105.4,124,106,123.1z"/>
	</g>
	<g>
		<defs>
			
				<filter id="Adobe_OpacityMaskFilter_00000042717126221548849770000001114088617563134878_" filterUnits="userSpaceOnUse" x="46.5" y="50.4" width="145.9" height="112.5">
				<feFlood  style="flood-color:white;flood-opacity:1" result="back"/>
				<feBlend  in="SourceGraphic" in2="back" mode="normal"/>
			</filter>
		</defs>
		
			<mask maskUnits="userSpaceOnUse" x="46.5" y="50.4" width="145.9" height="112.5" id="SVGID_00000025442884975575306130000014354007950642033848_">
			<g style="filter:url(#Adobe_OpacityMaskFilter_00000042717126221548849770000001114088617563134878_);">
				<defs>
					
						<filter id="Adobe_OpacityMaskFilter_00000150810741582754351630000013927918479869910170_" filterUnits="userSpaceOnUse" x="46.5" y="50.4" width="145.9" height="112.5">
						<feFlood  style="flood-color:white;flood-opacity:1" result="back"/>
						<feBlend  in="SourceGraphic" in2="back" mode="normal"/>
					</filter>
				</defs>
				
					<mask maskUnits="userSpaceOnUse" x="46.5" y="50.4" width="145.9" height="112.5" id="SVGID_00000025442884975575306130000014354007950642033848_">
					<g style="filter:url(#Adobe_OpacityMaskFilter_00000150810741582754351630000013927918479869910170_);">
					</g>
				</mask>
				
					<linearGradient id="SVGID_00000104668632465459942290000008284217654088453539_" gradientUnits="userSpaceOnUse" x1="36.3545" y1="169.0777" x2="207.6949" y2="21.0334" gradientTransform="matrix(0.9993 3.680000e-02 -3.680000e-02 0.9993 5.2484 2.4846)">
					<stop  offset="0" style="stop-color:#FFFFFF"/>
					<stop  offset="0.1595" style="stop-color:#C1C1C1"/>
					<stop  offset="0.3262" style="stop-color:#878787"/>
					<stop  offset="0.4877" style="stop-color:#565656"/>
					<stop  offset="0.6398" style="stop-color:#313131"/>
					<stop  offset="0.7801" style="stop-color:#161616"/>
					<stop  offset="0.9045" style="stop-color:#060606"/>
					<stop  offset="1" style="stop-color:#000000"/>
				</linearGradient>
				
					<polygon style="mask:url(#SVGID_00000025442884975575306130000014354007950642033848_);fill:url(#SVGID_00000104668632465459942290000008284217654088453539_);" points="
					46.5,160.4 192.3,50.4 49,162.9 				"/>
			</g>
		</mask>
		
			<linearGradient id="SVGID_00000022553746209359807220000005743534635663915178_" gradientUnits="userSpaceOnUse" x1="36.3545" y1="169.0777" x2="207.6949" y2="21.0334" gradientTransform="matrix(0.9993 3.680000e-02 -3.680000e-02 0.9993 5.2484 2.4846)">
			<stop  offset="0" style="stop-color:#F88968"/>
			<stop  offset="9.694695e-02" style="stop-color:#D57461"/>
			<stop  offset="0.2762" style="stop-color:#9C5255"/>
			<stop  offset="0.4496" style="stop-color:#6B354B"/>
			<stop  offset="0.6129" style="stop-color:#461F43"/>
			<stop  offset="0.7637" style="stop-color:#2B0F3E"/>
			<stop  offset="0.8974" style="stop-color:#1B053A"/>
			<stop  offset="1" style="stop-color:#150239"/>
		</linearGradient>
		<polygon style="fill:url(#SVGID_00000022553746209359807220000005743534635663915178_);" points="46.5,160.4 192.3,50.4 49,162.9 
					"/>
		<path class="st17" d="M49.5,161.7c0,1-0.9,1.8-1.9,1.7c-1,0-1.8-0.9-1.7-1.9c0-1,0.9-1.8,1.9-1.7
			C48.7,159.8,49.5,160.7,49.5,161.7z"/>
		<defs>
			
				<filter id="Adobe_OpacityMaskFilter_00000181796083632973335180000005673645533770784400_" filterUnits="userSpaceOnUse" x="45.9" y="157.2" width="7.8" height="6.2">
				<feFlood  style="flood-color:white;flood-opacity:1" result="back"/>
				<feBlend  in="SourceGraphic" in2="back" mode="normal"/>
			</filter>
		</defs>
		
			<mask maskUnits="userSpaceOnUse" x="45.9" y="157.2" width="7.8" height="6.2" id="SVGID_00000114063959247714768000000003560438287451626174_">
			<g style="filter:url(#Adobe_OpacityMaskFilter_00000181796083632973335180000005673645533770784400_);">
				<defs>
					
						<filter id="Adobe_OpacityMaskFilter_00000152946542515637242420000012508300905761173122_" filterUnits="userSpaceOnUse" x="45.9" y="157.2" width="7.8" height="6.2">
						<feFlood  style="flood-color:white;flood-opacity:1" result="back"/>
						<feBlend  in="SourceGraphic" in2="back" mode="normal"/>
					</filter>
				</defs>
				
					<mask maskUnits="userSpaceOnUse" x="45.9" y="157.2" width="7.8" height="6.2" id="SVGID_00000114063959247714768000000003560438287451626174_">
					<g style="filter:url(#Adobe_OpacityMaskFilter_00000152946542515637242420000012508300905761173122_);">
					</g>
				</mask>
				
					<linearGradient id="SVGID_00000150066891019016973170000018143834295566617760_" gradientUnits="userSpaceOnUse" x1="47.0328" y1="159.6856" x2="55.7454" y2="152.1576" gradientTransform="matrix(0.997 7.790000e-02 -7.790000e-02 0.997 11.1167 0.3251)">
					<stop  offset="0" style="stop-color:#FFFFFF"/>
					<stop  offset="0.1363" style="stop-color:#FBFBFB"/>
					<stop  offset="0.2633" style="stop-color:#F0F0F0"/>
					<stop  offset="0.3867" style="stop-color:#DDDDDD"/>
					<stop  offset="0.5078" style="stop-color:#C3C3C3"/>
					<stop  offset="0.6273" style="stop-color:#A0A0A0"/>
					<stop  offset="0.7456" style="stop-color:#767676"/>
					<stop  offset="0.863" style="stop-color:#454545"/>
					<stop  offset="0.9768" style="stop-color:#0C0C0C"/>
					<stop  offset="1" style="stop-color:#000000"/>
				</linearGradient>
				
					<path style="mask:url(#SVGID_00000114063959247714768000000003560438287451626174_);fill:url(#SVGID_00000150066891019016973170000018143834295566617760_);" d="
					M53.7,157.2c-3.3,0.8-5.4,2.2-6.1,2.7c-0.5,0-0.9,0.2-1.2,0.5c-0.3,0.3-0.5,0.7-0.5,1.1c-0.1,1,0.7,1.8,1.6,1.9
					c0.8,0.1,1.5-0.4,1.8-1.1c0-0.1,0.1-0.2,0.1-0.2C50.2,161.5,52,159.9,53.7,157.2z"/>
			</g>
		</mask>
		
			<linearGradient id="SVGID_00000078014973089254397430000014534469647286653624_" gradientUnits="userSpaceOnUse" x1="47.0328" y1="159.6856" x2="55.7454" y2="152.1576" gradientTransform="matrix(0.997 7.790000e-02 -7.790000e-02 0.997 11.1167 0.3251)">
			<stop  offset="0" style="stop-color:#F88968"/>
			<stop  offset="0.144" style="stop-color:#F48767"/>
			<stop  offset="0.2781" style="stop-color:#E98065"/>
			<stop  offset="0.4084" style="stop-color:#D67561"/>
			<stop  offset="0.5362" style="stop-color:#BC655B"/>
			<stop  offset="0.6624" style="stop-color:#995154"/>
			<stop  offset="0.7873" style="stop-color:#6F384C"/>
			<stop  offset="0.9088" style="stop-color:#3F1B42"/>
			<stop  offset="1" style="stop-color:#150239"/>
		</linearGradient>
		<path style="opacity:0.67;fill:url(#SVGID_00000078014973089254397430000014534469647286653624_);" d="M53.7,157.2
			c-3.3,0.8-5.4,2.2-6.1,2.7c-0.5,0-0.9,0.2-1.2,0.5c-0.3,0.3-0.5,0.7-0.5,1.1c-0.1,1,0.7,1.8,1.6,1.9c0.8,0.1,1.5-0.4,1.8-1.1
			c0-0.1,0.1-0.2,0.1-0.2C50.2,161.5,52,159.9,53.7,157.2z"/>
	</g>
	<defs>
		
			<filter id="Adobe_OpacityMaskFilter_00000011713340530264123980000018127342894605537471_" filterUnits="userSpaceOnUse" x="10.4" y="147.3" width="62.4" height="55.9">
			<feFlood  style="flood-color:white;flood-opacity:1" result="back"/>
			<feBlend  in="SourceGraphic" in2="back" mode="normal"/>
		</filter>
	</defs>
	
		<mask maskUnits="userSpaceOnUse" x="10.4" y="147.3" width="62.4" height="55.9" id="SVGID_00000156545398668258243280000011141476090892593562_">
		<g style="filter:url(#Adobe_OpacityMaskFilter_00000011713340530264123980000018127342894605537471_);">
			<defs>
				
					<filter id="Adobe_OpacityMaskFilter_00000018214824861288732430000004299931660102779311_" filterUnits="userSpaceOnUse" x="10.4" y="147.3" width="62.4" height="55.9">
					<feFlood  style="flood-color:white;flood-opacity:1" result="back"/>
					<feBlend  in="SourceGraphic" in2="back" mode="normal"/>
				</filter>
			</defs>
			
				<mask maskUnits="userSpaceOnUse" x="10.4" y="147.3" width="62.4" height="55.9" id="SVGID_00000156545398668258243280000011141476090892593562_">
				<g style="filter:url(#Adobe_OpacityMaskFilter_00000018214824861288732430000004299931660102779311_);">
				</g>
			</mask>
			
				<linearGradient id="SVGID_00000143595420630548502590000013813573366443337857_" gradientUnits="userSpaceOnUse" x1="8.7466" y1="202.5946" x2="81.5951" y2="139.6508">
				<stop  offset="0" style="stop-color:#FFFFFF"/>
				<stop  offset="0.1363" style="stop-color:#FBFBFB"/>
				<stop  offset="0.2633" style="stop-color:#F0F0F0"/>
				<stop  offset="0.3867" style="stop-color:#DDDDDD"/>
				<stop  offset="0.5078" style="stop-color:#C3C3C3"/>
				<stop  offset="0.6273" style="stop-color:#A0A0A0"/>
				<stop  offset="0.7456" style="stop-color:#767676"/>
				<stop  offset="0.863" style="stop-color:#454545"/>
				<stop  offset="0.9768" style="stop-color:#0C0C0C"/>
				<stop  offset="1" style="stop-color:#000000"/>
			</linearGradient>
			
				<path style="mask:url(#SVGID_00000156545398668258243280000011141476090892593562_);fill:url(#SVGID_00000143595420630548502590000013813573366443337857_);" d="
				M72.8,147.3c-26.9,9.1-43.5,21.7-48.8,26.1c-4,0.4-7.6,2.3-10,5.2c-2.3,2.6-3.6,6-3.6,9.7c0,8.3,6.7,15,15,15
				c6.8,0,12.5-4.5,14.4-10.7c0.2-0.7,0.4-1.4,0.5-2.1C46,185.2,60.2,171.1,72.8,147.3z"/>
		</g>
	</mask>
	
		<linearGradient id="SVGID_00000063620156521749892300000007436984945392077246_" gradientUnits="userSpaceOnUse" x1="8.7466" y1="202.5946" x2="81.5951" y2="139.6508">
		<stop  offset="0" style="stop-color:#F88968"/>
		<stop  offset="0.144" style="stop-color:#F48767"/>
		<stop  offset="0.2781" style="stop-color:#E98065"/>
		<stop  offset="0.4084" style="stop-color:#D67561"/>
		<stop  offset="0.5362" style="stop-color:#BC655B"/>
		<stop  offset="0.6624" style="stop-color:#995154"/>
		<stop  offset="0.7873" style="stop-color:#6F384C"/>
		<stop  offset="0.9088" style="stop-color:#3F1B42"/>
		<stop  offset="1" style="stop-color:#150239"/>
	</linearGradient>
	<path style="opacity:0.67;fill:url(#SVGID_00000063620156521749892300000007436984945392077246_);" d="M72.8,147.3
		c-26.9,9.1-43.5,21.7-48.8,26.1c-4,0.4-7.6,2.3-10,5.2c-2.3,2.6-3.6,6-3.6,9.7c0,8.3,6.7,15,15,15c6.8,0,12.5-4.5,14.4-10.7
		c0.2-0.7,0.4-1.4,0.5-2.1C46,185.2,60.2,171.1,72.8,147.3z"/>
</g>
</svg>
