<svg xmlns="http://www.w3.org/2000/svg" xmlns:xlink="http://www.w3.org/1999/xlink" viewBox="0 0 293.95 203.91"><defs><style>.cls-1,.cls-10{mask:url(#mask);}.cls-1{filter:url(#luminosity-noclip-12);}.cls-11,.cls-12,.cls-14,.cls-15,.cls-2,.cls-4,.cls-5,.cls-6,.cls-8{mix-blend-mode:multiply;}.cls-2{fill:url(#Áåçûìÿííûé_ãðàäèåíò_121);}.cls-3{mask:url(#mask-2);}.cls-4{fill:url(#Áåçûìÿííûé_ãðàäèåíò_118);}.cls-5{fill:url(#Áåçûìÿííûé_ãðàäèåíò_69);}.cls-6{fill:url(#Áåçûìÿííûé_ãðàäèåíò_19);}.cls-7,.cls-9{mask:url(#mask-5);}.cls-7{filter:url(#luminosity-invert);}.cls-8{fill:url(#Áåçûìÿííûé_ãðàäèåíò_117);}.cls-11{fill:url(#Áåçûìÿííûé_ãðàäèåíò_41);}.cls-12{fill:url(#Áåçûìÿííûé_ãðàäèåíò_68);}.cls-13{mask:url(#mask-10);}.cls-14{fill:url(#Áåçûìÿííûé_ãðàäèåíò_118-2);}.cls-15{fill:url(#Áåçûìÿííûé_ãðàäèåíò_69-2);}.cls-16,.cls-24{isolation:isolate;}.cls-17{mask:url(#mask-12);}.cls-18,.cls-20,.cls-22{opacity:0.68;}.cls-18{fill:url(#Áåçûìÿííûé_ãðàäèåíò_20);}.cls-19{mask:url(#mask-15);}.cls-20{fill:url(#Áåçûìÿííûé_ãðàäèåíò_14);}.cls-21{mask:url(#mask-17);}.cls-22{mix-blend-mode:screen;fill:url(#Áåçûìÿííûé_ãðàäèåíò_14-2);}.cls-23{mask:url(#mask-20);}.cls-24{fill:url(#Áåçûìÿííûé_ãðàäèåíò_52);}.cls-25{fill:#799ff2;}.cls-26{fill:#9cffff;}.cls-27{filter:url(#luminosity-noclip-10);}.cls-28{filter:url(#luminosity-noclip-5);}.cls-29{filter:url(#luminosity-noclip-2);}.cls-30{filter:url(#luminosity-noclip);}</style><filter id="luminosity-noclip" x="30.81" y="-8469.49" width="229.19" height="32766" filterUnits="userSpaceOnUse" color-interpolation-filters="sRGB"><feFlood flood-color="#fff" result="bg"/><feBlend in="SourceGraphic" in2="bg"/></filter><mask id="mask" x="30.81" y="-8469.49" width="229.19" height="32766" maskUnits="userSpaceOnUse"><g class="cls-30"/></mask><linearGradient id="Áåçûìÿííûé_ãðàäèåíò_121" x1="10" y1="172.89" x2="258.15" y2="7.89" gradientUnits="userSpaceOnUse"><stop offset="0" stop-color="gray"/><stop offset="0.18" stop-color="#7c7c7c"/><stop offset="0.35" stop-color="#707070"/><stop offset="0.53" stop-color="#5c5c5c"/><stop offset="0.71" stop-color="#404040"/><stop offset="0.89" stop-color="#1c1c1c"/><stop offset="1"/></linearGradient><filter id="luminosity-noclip-2" x="23.95" y="-8469.49" width="270" height="32766" filterUnits="userSpaceOnUse" color-interpolation-filters="sRGB"><feFlood flood-color="#fff" result="bg"/><feBlend in="SourceGraphic" in2="bg"/></filter><mask id="mask-2" x="23.95" y="-8469.49" width="270" height="32766" maskUnits="userSpaceOnUse"><g class="cls-29"/></mask><linearGradient id="Áåçûìÿííûé_ãðàäèåíò_118" x1="23.95" y1="92.76" x2="293.95" y2="92.76" gradientUnits="userSpaceOnUse"><stop offset="0" stop-color="gray"/><stop offset="0.16" stop-color="#696969"/><stop offset="0.74" stop-color="#1e1e1e"/><stop offset="1"/></linearGradient><linearGradient id="Áåçûìÿííûé_ãðàäèåíò_69" x1="23.95" y1="92.76" x2="293.95" y2="92.76" gradientUnits="userSpaceOnUse"><stop offset="0" stop-color="#fff"/><stop offset="0.1" stop-color="#e3e3e3"/><stop offset="0.55" stop-color="#6a6a6a"/><stop offset="0.86" stop-color="#1e1e1e"/><stop offset="1"/></linearGradient><linearGradient id="Áåçûìÿííûé_ãðàäèåíò_19" x1="23.95" y1="92.76" x2="293.95" y2="92.76" gradientUnits="userSpaceOnUse"><stop offset="0" stop-color="#fff"/><stop offset="0.16" stop-color="#e9e9e9"/><stop offset="0.73" stop-color="#9e9e9e"/><stop offset="1" stop-color="gray"/></linearGradient><filter id="luminosity-noclip-5" x="0" y="-8469.49" width="76.15" height="32766" filterUnits="userSpaceOnUse" color-interpolation-filters="sRGB"><feFlood flood-color="#fff" result="bg"/><feBlend in="SourceGraphic" in2="bg"/></filter><mask id="mask-5" x="0" y="-8469.49" width="76.15" height="32766" maskUnits="userSpaceOnUse"><g class="cls-28"/></mask><radialGradient id="Áåçûìÿííûé_ãðàäèåíò_117" cx="-1.64" cy="234.25" r="26.76" gradientTransform="matrix(1.6, 0, 0, 0.91, 40.43, -41.22)" xlink:href="#Áåçûìÿííûé_ãðàäèåíò_69"/><linearGradient id="Áåçûìÿííûé_ãðàäèåíò_41" x1="10" y1="172.89" x2="258.15" y2="7.89" gradientUnits="userSpaceOnUse"><stop offset="0" stop-color="#fff"/><stop offset="0.12" stop-color="#fbfbfb"/><stop offset="0.25" stop-color="#efefef"/><stop offset="0.38" stop-color="#dbdbdb"/><stop offset="0.5" stop-color="#bebebe"/><stop offset="0.63" stop-color="#9a9a9a"/><stop offset="0.76" stop-color="#6d6d6d"/><stop offset="0.88" stop-color="#3a3a3a"/><stop offset="1"/></linearGradient><radialGradient id="Áåçûìÿííûé_ãðàäèåíò_68" cx="-1.64" cy="234.25" r="26.76" gradientTransform="matrix(1.6, 0, 0, 0.91, 40.43, -41.22)" gradientUnits="userSpaceOnUse"><stop offset="0" stop-color="#fff"/><stop offset="0.11" stop-color="#fafafa"/><stop offset="0.23" stop-color="#ececec"/><stop offset="0.36" stop-color="#d5d5d5"/><stop offset="0.5" stop-color="#b5b5b5"/><stop offset="0.64" stop-color="#8c8c8c"/><stop offset="0.79" stop-color="#595959"/><stop offset="0.93" stop-color="#1f1f1f"/><stop offset="1"/></radialGradient><filter id="luminosity-noclip-10" x="18.5" y="-8469.49" width="165.81" height="32766" filterUnits="userSpaceOnUse" color-interpolation-filters="sRGB"><feFlood flood-color="#fff" result="bg"/><feBlend in="SourceGraphic" in2="bg"/></filter><mask id="mask-10" x="18.5" y="-8469.49" width="165.81" height="32766" maskUnits="userSpaceOnUse"><g class="cls-27"/></mask><linearGradient id="Áåçûìÿííûé_ãðàäèåíò_118-2" x1="18.5" y1="115.62" x2="184.31" y2="115.62" xlink:href="#Áåçûìÿííûé_ãðàäèåíò_118"/><linearGradient id="Áåçûìÿííûé_ãðàäèåíò_69-2" x1="18.5" y1="115.62" x2="184.31" y2="115.62" xlink:href="#Áåçûìÿííûé_ãðàäèåíò_69"/><filter id="luminosity-noclip-12" x="30.81" y="2.95" width="229.19" height="168.81" filterUnits="userSpaceOnUse" color-interpolation-filters="sRGB"><feFlood flood-color="#fff" result="bg"/><feBlend in="SourceGraphic" in2="bg"/></filter><mask id="mask-12" x="30.81" y="2.95" width="229.19" height="168.81" maskUnits="userSpaceOnUse"><g class="cls-1"><path class="cls-2" d="M30.81,161.35l178-153.61a19.73,19.73,0,0,1,24.62-.91l21.44,15.88a12.79,12.79,0,0,1-.91,21.17L46,171.76Z"/></g></mask><linearGradient id="Áåçûìÿííûé_ãðàäèåíò_20" x1="10" y1="172.89" x2="258.15" y2="7.89" gradientUnits="userSpaceOnUse"><stop offset="0" stop-color="#9cffff"/><stop offset="0.13" stop-color="#9afbfc"/><stop offset="0.25" stop-color="#93eff2"/><stop offset="0.38" stop-color="#89dbe3"/><stop offset="0.5" stop-color="#7abecc"/><stop offset="0.63" stop-color="#669ab0"/><stop offset="0.76" stop-color="#4e6d8d"/><stop offset="0.88" stop-color="#333a64"/><stop offset="1" stop-color="#150239"/></linearGradient><mask id="mask-15" x="18.5" y="41.59" width="165.81" height="148.06" maskUnits="userSpaceOnUse"><g class="cls-13"><polygon class="cls-14" points="18.5 170.23 150.2 41.59 43.65 156.5 184.31 49.16 34.75 173.34 131.81 109.61 57.57 165.39 151.31 116.7 33.28 189.66 18.5 170.23"/></g></mask><filter id="luminosity-noclip-15" x="18.5" y="41.59" width="165.81" height="148.06" filterUnits="userSpaceOnUse" color-interpolation-filters="sRGB"><feFlood flood-color="#fff" result="bg"/><feBlend in="SourceGraphic" in2="bg"/></filter><linearGradient id="Áåçûìÿííûé_ãðàäèåíò_14" x1="18.5" y1="115.62" x2="184.31" y2="115.62" gradientUnits="userSpaceOnUse"><stop offset="0" stop-color="#9cffff"/><stop offset="1" stop-color="#9cffff"/></linearGradient><mask id="mask-17" x="23.95" y="0" width="270" height="185.51" maskUnits="userSpaceOnUse"><g class="cls-3"><polygon class="cls-4" points="23.95 167.12 171.41 50.88 59.73 150.54 293.95 0 35.35 185.51 23.95 167.12"/></g></mask><filter id="luminosity-noclip-16" x="23.95" y="0" width="270" height="185.51" filterUnits="userSpaceOnUse" color-interpolation-filters="sRGB"><feFlood flood-color="#fff" result="bg"/><feBlend in="SourceGraphic" in2="bg"/></filter><linearGradient id="Áåçûìÿííûé_ãðàäèåíò_14-2" x1="23.95" y1="92.76" x2="293.95" y2="92.76" xlink:href="#Áåçûìÿííûé_ãðàäèåíò_14"/><filter id="luminosity-invert" filterUnits="userSpaceOnUse" color-interpolation-filters="sRGB"><feColorMatrix values="-1 0 0 0 1 0 -1 0 0 1 0 0 -1 0 1 0 0 0 1 0"/></filter><mask id="mask-20" x="0" y="141.55" width="76.15" height="62.36" maskUnits="userSpaceOnUse"><g class="cls-7"><ellipse class="cls-8" cx="38.07" cy="172.73" rx="42.71" ry="24.44" transform="translate(-89.15 49.85) rotate(-33.56)"/></g></mask><filter id="luminosity-noclip-17" x="0" y="141.55" width="76.15" height="62.36" filterUnits="userSpaceOnUse" color-interpolation-filters="sRGB"><feFlood flood-color="#fff" result="bg"/><feBlend in="SourceGraphic" in2="bg"/></filter><radialGradient id="Áåçûìÿííûé_ãðàäèåíò_52" cx="-1.64" cy="234.25" r="26.76" gradientTransform="matrix(1.6, 0, 0, 0.91, 40.43, -41.22)" xlink:href="#Áåçûìÿííûé_ãðàäèåíò_14"/></defs><g class="cls-16"><g id="Layer_2" data-name="Layer 2"><g id="Ñëîé_1" data-name="Ñëîé 1"><g class="cls-17"><g class="cls-17"><g class="cls-17"><path class="cls-18" d="M30.81,161.35l178-153.61a19.73,19.73,0,0,1,24.62-.91l21.44,15.88a12.79,12.79,0,0,1-.91,21.17L46,171.76Z"/></g></g></g><g class="cls-19"><g class="cls-19"><polygon class="cls-20" points="18.5 170.23 150.2 41.59 43.65 156.5 184.31 49.16 34.75 173.34 131.81 109.61 57.57 165.39 151.31 116.7 33.28 189.66 18.5 170.23"/></g></g><g class="cls-21"><g class="cls-21"><g class="cls-21"><polygon class="cls-22" points="23.95 167.12 171.41 50.88 59.73 150.54 293.95 0 35.35 185.51 23.95 167.12"/></g></g></g><g class="cls-23"><g class="cls-23"><g class="cls-23"><ellipse class="cls-24" cx="38.07" cy="172.73" rx="42.71" ry="24.44" transform="translate(-89.15 49.85) rotate(-33.56)"/></g></g></g><path class="cls-25" d="M40.88,174.38c-2.51,1.11,1.89-5.14.11-4.54-6.05,2.29-6.42,12.76-11.6,13.17s2.3-9.26,3.15-14.32c.14-1.37-1.49-2.15-3.27-1.55C21,171,19.58,178.34,14.59,183.72c-1.94-1.2,2.32-6.08-1.22-4.89a4.52,4.52,0,0,0-1.65.64c-1.67,3.84-1.77,7.53.1,10.22,3.88,5.58,14.78,4.72,24.34-1.93,8.63-6,13.22-14.64,11.18-20.38C44.37,169.43,43,173.87,40.88,174.38Z"/><path class="cls-25" d="M41,173.12c-2.51,1.11,1.89-5.14.11-4.54-6,2.29-6.42,12.75-11.6,13.16s2.3-9.25,3.15-14.31c.14-1.37-1.49-2.15-3.27-1.55-8.26,3.83-9.69,11.2-14.69,16.58-1.93-1.21,2.33-6.08-1.22-4.89a4.66,4.66,0,0,0-1.65.64c-1.67,3.84-1.77,7.53.1,10.22,3.89,5.58,14.79,4.72,24.35-1.93,8.63-6,13.22-14.65,11.18-20.38C44.53,168.17,43.19,172.6,41,173.12Z"/><path class="cls-26" d="M22.1,167.55a29.67,29.67,0,0,0-10.38,11.92,4.52,4.52,0,0,1,1.65-.64c3.54-1.19-.72,3.69,1.22,4.89,5-5.38,6.42-12.75,14.68-16.58,1.78-.6,3.41.18,3.27,1.55-.85,5.06-8.33,14.73-3.15,14.32s5.55-10.88,11.6-13.17c1.78-.6-2.62,5.65-.11,4.54,2.15-.51,3.49-4.95,6.46-7a7.25,7.25,0,0,0-.9-1.75C42.56,160.05,31.66,160.91,22.1,167.55Z"/></g></g></g></svg>